<?xml version="1.0" encoding="UTF-8" standalone="no"?>
<!-- Created with Inkscape (http://www.inkscape.org/) -->

<svg
   xmlns:dc="http://purl.org/dc/elements/1.1/"
   xmlns:cc="http://creativecommons.org/ns#"
   xmlns:rdf="http://www.w3.org/1999/02/22-rdf-syntax-ns#"
   xmlns:svg="http://www.w3.org/2000/svg"
   xmlns="http://www.w3.org/2000/svg"
   xmlns:sodipodi="http://sodipodi.sourceforge.net/DTD/sodipodi-0.dtd"
   xmlns:inkscape="http://www.inkscape.org/namespaces/inkscape"
   width="177.21252mm"
   height="58.889782mm"
   viewBox="0 0 627.91839 208.66458"
   id="svg4207"
   version="1.1"
   inkscape:version="0.91 r13725"
   sodipodi:docname="iron.svg">
  <defs
     id="defs4209" />
  <sodipodi:namedview
     id="base"
     pagecolor="#ffffff"
     bordercolor="#666666"
     borderopacity="1.0"
     inkscape:pageopacity="0.0"
     inkscape:pageshadow="2"
     inkscape:zoom="0.98994949"
     inkscape:cx="250.31676"
     inkscape:cy="36.121987"
     inkscape:document-units="px"
     inkscape:current-layer="layer1"
     showgrid="false"
     fit-margin-top="0"
     fit-margin-left="0"
     fit-margin-right="0"
     fit-margin-bottom="0"
     inkscape:window-width="1600"
     inkscape:window-height="850"
     inkscape:window-x="0"
     inkscape:window-y="27"
     inkscape:window-maximized="1" />
  <metadata
     id="metadata4212">
    <rdf:RDF>
      <cc:Work
         rdf:about="">
        <dc:format>image/svg+xml</dc:format>
        <dc:type
           rdf:resource="http://purl.org/dc/dcmitype/StillImage" />
        <dc:title></dc:title>
      </cc:Work>
    </rdf:RDF>
  </metadata>
  <g
     inkscape:label="Layer 1"
     inkscape:groupmode="layer"
     id="layer1"
     transform="translate(-6.0407766,-316.60135)">
    <g
       transform="matrix(0.95565381,-0.29449242,0.29449242,0.95565381,-129.0746,78.690537)"
       inkscape:label="#iron"
       id="g4164">
      <path
         style="color:#000000;font-style:normal;font-variant:normal;font-weight:normal;font-stretch:normal;font-size:medium;line-height:normal;font-family:sans-serif;text-indent:0;text-align:start;text-decoration:none;text-decoration-line:none;text-decoration-style:solid;text-decoration-color:#000000;letter-spacing:normal;word-spacing:normal;text-transform:none;direction:ltr;block-progression:tb;writing-mode:lr-tb;baseline-shift:baseline;text-anchor:start;white-space:normal;clip-rule:nonzero;display:inline;overflow:visible;visibility:visible;opacity:1;isolation:auto;mix-blend-mode:normal;color-interpolation:sRGB;color-interpolation-filters:linearRGB;solid-color:#000000;solid-opacity:1;fill:#000000;fill-opacity:1;fill-rule:evenodd;stroke:none;stroke-width:13.5;stroke-linecap:butt;stroke-linejoin:miter;stroke-miterlimit:4;stroke-dasharray:none;stroke-dashoffset:0;stroke-opacity:1;color-rendering:auto;image-rendering:auto;shape-rendering:auto;text-rendering:auto;enable-background:accumulate"
         d="m 143.74414,297.45703 c -2.3119,0.093 -4.56978,0.33268 -6.77539,0.71289 -17.64487,3.04173 -30.59243,14.62714 -41.734375,27.1582 -11.141947,12.53107 -20.919675,26.34633 -31.660156,35.83594 -10.740481,9.48962 -21.519314,14.79377 -37.240235,12.1875 l -2.207031,13.31836 c 19.939385,3.30562 35.906205,-4.3634 48.384766,-15.38867 12.478561,-11.02527 22.39377,-25.26669 32.812501,-36.98437 10.41873,-11.71769 20.89911,-20.5743 33.93945,-22.82227 13.04035,-2.24797 30.05615,1.7116 54.52344,19.29687 l 7.87891,-10.96289 c -22.8597,-16.42985 -41.73856,-23.00264 -57.92188,-22.35156 z"
         id="path4166"
         inkscape:connector-curvature="0" />
      <path
         style="fill:#ffd400;fill-opacity:1;fill-rule:evenodd;stroke:#000000;stroke-width:5;stroke-linecap:butt;stroke-linejoin:miter;stroke-miterlimit:4;stroke-dasharray:none;stroke-opacity:1"
         d="M 188.89853,334.64882 340.92648,465.46358 368.2006,434.14885 204.05081,314.44577 c 0,0 -4.61137,-1.55984 -10.86532,6.77877 -6.25395,8.3386 -4.28696,13.42428 -4.28696,13.42428 z"
         id="path4168"
         inkscape:connector-curvature="0"
         sodipodi:nodetypes="cccczc" />
      <path
         style="fill:#ffd400;fill-opacity:1;fill-rule:evenodd;stroke:#000000;stroke-width:5;stroke-linecap:butt;stroke-linejoin:miter;stroke-miterlimit:4;stroke-dasharray:none;stroke-opacity:1"
         d="m 387.85714,515.21935 -48.21428,-39.46429 c 0,0 -4.41863,-18.36676 10.90875,-34.61676 15.32738,-16.25 29.62696,-7.16895 29.62696,-7.16895 l 49.28572,38.92857"
         id="path4170"
         inkscape:connector-curvature="0"
         sodipodi:nodetypes="cczcc" />
      <path
         style="fill:#000000;fill-opacity:1;fill-rule:evenodd;stroke:#000000;stroke-width:5;stroke-linecap:butt;stroke-linejoin:miter;stroke-miterlimit:4;stroke-dasharray:none;stroke-opacity:1"
         d="m 473.38274,489.20216 -26.39024,-21.2132 c 0,0 -16.49487,-6.82036 -42.33793,19.0227 -25.84306,25.84306 -18.7763,46.63721 -18.7763,46.63721 l 23.23483,23.67994"
         id="path4172"
         inkscape:connector-curvature="0"
         sodipodi:nodetypes="cczcc" />
      <ellipse
         style="opacity:1;fill:#747474;fill-opacity:1;stroke:#000000;stroke-width:5;stroke-miterlimit:4;stroke-dasharray:none;stroke-opacity:1"
         id="ellipse4174"
         cx="-121.83246"
         cy="674.59381"
         rx="46.992603"
         ry="25.768919"
         transform="matrix(0.63779187,-0.77020876,0.77020876,0.63779187,0,0)" />
      <path
         style="fill:#cecece;fill-opacity:1;fill-rule:evenodd;stroke:#000000;stroke-width:5;stroke-linecap:butt;stroke-linejoin:miter;stroke-miterlimit:4;stroke-dasharray:none;stroke-opacity:1"
         d="m 456.31345,508.48748 c 0,0 -10.20966,0.82146 -19.36691,13.42101 -6.12957,8.43374 -5.47464,21.3085 -5.47464,21.3085 l 92.67145,72.97291 25.7991,-29.93874 z"
         id="path4176"
         inkscape:connector-curvature="0"
         sodipodi:nodetypes="cscccc" />
      <ellipse
         style="opacity:1;fill:#cecece;fill-opacity:1;stroke:#000000;stroke-width:5.26611376;stroke-miterlimit:4;stroke-dasharray:none;stroke-opacity:1"
         id="ellipse4178"
         cx="554.17462"
         cy="873.9787"
         rx="17.475868"
         ry="14.904597"
         transform="matrix(0.87298271,-0.48775115,0.06186917,0.99808427,0,0)" />
      <path
         style="fill:#cecece;fill-opacity:1;fill-rule:evenodd;stroke:#000000;stroke-width:5;stroke-linecap:butt;stroke-linejoin:round;stroke-miterlimit:4;stroke-dasharray:none;stroke-opacity:1"
         d="m 533.45257,607.45635 32.34186,26.00044 30.23647,14.89739 -19.88145,-24.87805 -31.80619,-26.60604 c 0,0 -1.78765,-2.84744 -6.90715,1.7892 -5.11949,4.63664 -3.98354,8.79706 -3.98354,8.79706 z"
         id="path4180"
         inkscape:connector-curvature="0"
         sodipodi:nodetypes="ccccczc" />
    </g>
  </g>
</svg>
